<svg width="21.002686" height="20.252747" viewBox="0 0 21.0027 20.2527" fill="none" xmlns="http://www.w3.org/2000/svg" xmlns:xlink="http://www.w3.org/1999/xlink">
	<desc>
			Created with Pixso.
	</desc>
	<defs/>
	<circle id="circle" cx="8.502686" cy="18.502747" r="1.750000" fill="#808080" fill-opacity="1.000000"/>
	<circle id="circle" cx="17.002686" cy="18.502747" r="1.750000" fill="#808080" fill-opacity="1.000000"/>
	<path id="path" d="M0.36 1.37L0.33 1.37C-0.02 1.14 -0.11 0.68 0.12 0.33C0.36 -0.02 0.81 -0.11 1.16 0.12L1.17 0.15L0.36 1.37ZM10.77 6.98L10.75 7C10.33 7 10 6.67 10 6.25C10 5.83 10.33 5.5 10.75 5.5L10.77 5.52L10.77 6.98Z" fill="#000000" fill-opacity="0" fill-rule="nonzero"/>
	<path id="path" d="M0.75 0.75L5.25 3.75L7.75 14.75L17.75 14.75L20.25 6.25L10.75 6.25" stroke="#808080" stroke-opacity="1.000000" stroke-width="1.500000" stroke-linejoin="round" stroke-linecap="round"/>
	<path id="path" d="M10.77 11.48L10.75 11.5C10.33 11.5 10 11.17 10 10.75C10 10.33 10.33 10 10.75 10L10.77 10.02L10.77 11.48ZM18.73 10.02L18.75 10C19.17 10 19.5 10.33 19.5 10.75C19.5 11.17 19.17 11.5 18.75 11.5L18.73 11.48L18.73 10.02Z" fill="#000000" fill-opacity="0" fill-rule="nonzero"/>
	<path id="path" d="M10.75 10.75L14.38 10.75L18.75 10.75" stroke="#808080" stroke-opacity="1.000000" stroke-width="1.500000" stroke-linejoin="round" stroke-linecap="round"/>
</svg>
